<svg width="50" height="48" viewBox="0 0 50 48" fill="none" xmlns="http://www.w3.org/2000/svg">
<path d="M38.0714 7.2L39.5714 10.488L42.8333 12L39.5714 13.512L38.0714 16.8L36.5714 13.512L33.3095 12L36.5714 10.488L38.0714 7.2ZM23.8095 9.912V4.8H28.5714C29.9286 4.8 31.1905 5.208 32.2619 5.88L35.6667 2.448C33.6334 0.866976 31.1394 0.00648304 28.5714 0H15.4762V4.8H19.0476V9.936C16.9898 10.3693 15.0822 11.3435 13.5183 12.7597C11.9545 14.1759 10.79 15.9838 10.1429 18H19.619L33.3333 23.16V21.672C33.3339 18.9056 32.3862 16.224 30.6507 14.081C28.9152 11.938 26.4985 10.4653 23.8095 9.912ZM0 48H9.52381V21.6H0V48ZM45.2381 36H28.5714L23.5952 34.248L24.381 31.992L28.5714 33.6H35.2857C36.8333 33.6 38.0952 32.328 38.0952 30.768C38.0952 29.592 37.3571 28.536 36.2619 28.104L18.9762 21.6H14.2857V43.248L30.9524 48L50 40.8C49.9762 38.16 47.881 36 45.2381 36ZM45.2381 28.8C47.8571 28.8 50 26.64 50 24C50 21.36 45.2381 14.4 45.2381 14.4C45.2381 14.4 40.4762 21.36 40.4762 24C40.4762 26.64 42.619 28.8 45.2381 28.8Z" fill="white"/>
</svg>
