<svg width="51" height="50" viewBox="0 0 51 50" fill="none" xmlns="http://www.w3.org/2000/svg">
<path d="M22.3736 7.81239C20.0332 7.81239 17.8677 8.54677 16.0865 9.79677C15.9709 8.00615 15.5616 6.45302 14.8085 5.07801C17.1871 3.76158 19.8681 3.08863 22.5865 3.12567C25.3048 3.1627 27.9665 3.90845 30.3084 5.2892C32.6503 6.66995 34.5915 8.63793 35.94 10.9987C37.2885 13.3594 37.9978 16.0311 37.9977 18.7499H45.0316C46.4814 18.7499 47.8718 19.3257 48.8972 20.3506C49.9227 21.3755 50.4992 22.7657 50.5 24.2156V41.4031C50.5004 42.1218 50.3592 42.8335 50.0843 43.4976C49.8095 44.1617 49.4065 44.765 48.8983 45.2732C48.3902 45.7814 47.7868 46.1845 47.1228 46.4593C46.4588 46.7341 45.7471 46.8754 45.0285 46.875H27.842C26.3917 46.875 25.0008 46.2988 23.9753 45.2732C22.9498 44.2476 22.3736 42.8566 22.3736 41.4062V34.375C20.2 34.3777 18.0498 33.9253 16.0615 33.0468C16.1021 31.9843 16.124 30.8687 16.124 29.6875V29.4937C16.124 28.9718 16.124 28.3718 16.1146 27.7218C17.9498 29.0039 20.135 29.6902 22.3736 29.6875V24.2187C22.3736 21.1999 24.8235 18.7499 27.842 18.7499H33.3105C33.3105 15.8491 32.1582 13.0671 30.1071 11.0159C28.0561 8.96474 25.2743 7.81239 22.3736 7.81239ZM37.2821 23.4374C36.5247 25.8371 35.2004 28.0189 33.4212 29.7982C31.642 31.5775 29.4603 32.9019 27.0608 33.6593V41.4062C27.0608 41.8375 27.4108 42.1875 27.842 42.1875H45.0285C45.2357 42.1875 45.4344 42.1052 45.5809 41.9587C45.7274 41.8121 45.8097 41.6134 45.8097 41.4062V24.2187C45.8097 24.0115 45.7274 23.8128 45.5809 23.6663C45.4344 23.5197 45.2357 23.4374 45.0285 23.4374H37.2821ZM32.2574 23.4374H27.842C27.6349 23.4374 27.4362 23.5197 27.2896 23.6663C27.1431 23.8128 27.0608 24.0115 27.0608 24.2187V28.6343C29.3383 27.5501 31.1733 25.7151 32.2574 23.4374ZM8.56512 0.390501C8.82449 0.617382 9.00158 0.92365 9.06884 1.26163C9.13609 1.59962 9.08973 1.95036 8.93697 2.25926C8.91052 2.35068 8.89685 2.44533 8.89635 2.54051C8.89635 2.73738 8.94635 3.11238 9.41819 3.58113C9.6463 3.80926 9.82129 3.97176 10.0119 4.14989C10.1681 4.29364 10.3338 4.44364 10.5431 4.64989C10.9493 5.03739 11.3774 5.49364 11.7618 6.06552C12.5586 7.26239 12.9992 8.75927 12.9992 10.9374C12.9992 13.603 12.0118 15.8749 10.4713 17.2687L10.6712 17.4999C11.5462 18.5749 12.0555 19.9687 12.3743 21.3437C12.9992 24.0624 12.9992 27.3312 12.9992 29.6093V29.6875C12.9992 38.3968 11.8149 43.3375 10.5119 46.1625C9.85567 47.5844 9.15883 48.4906 8.55575 49.0594C8.31056 49.2946 8.04019 49.5021 7.74955 49.6781C7.61647 49.7583 7.47754 49.8282 7.33395 49.8875C7.33395 49.8875 6.98084 50 6.74961 50C6.51837 50 6.16527 49.8875 6.16527 49.8875C6.02012 49.8317 5.8809 49.7616 5.74967 49.6781C5.45903 49.5021 5.18866 49.2946 4.94347 49.0594C4.34038 48.4875 3.64355 47.5844 2.98734 46.1625C1.6843 43.3375 0.5 38.3968 0.5 29.6875V29.6093C0.5 27.3281 0.5 24.0624 1.12496 21.3437C1.44369 19.9687 1.95303 18.5749 2.82798 17.4999C2.89048 17.4218 2.95922 17.3437 3.02797 17.2687C1.48744 15.8749 0.5 13.603 0.5 10.9374C0.5 9.91865 0.771858 8.70302 1.14683 7.58114C1.52181 6.45614 2.04678 5.29364 2.65299 4.35614C3.37482 3.13738 4.39038 2.1155 5.17783 1.428C5.60955 1.0483 6.06009 0.690559 6.52775 0.356126L6.66524 0.262376C6.95177 0.0713648 7.29338 -0.0196284 7.63695 0.00354185C7.98053 0.0267121 8.30683 0.162747 8.56512 0.390501Z" fill="white"/>
</svg>
