<svg width="50" height="36" viewBox="0 0 50 36" fill="none" xmlns="http://www.w3.org/2000/svg">
<path d="M47.3823 0H2.61771C1.17813 0 0 1.3309 0 2.64698C0 3.96306 1.17813 5.2929 2.61771 5.2929H3.25V10.5869H46.8135V5.2929H47.3823C48.8229 5.2929 50 3.96306 50 2.64698C50 1.3309 48.8229 0 47.3823 0ZM25 7.96212C24.2771 7.96212 23.6917 7.34908 23.6917 6.59416C23.6917 5.83924 24.2771 5.2262 25 5.2262C25.724 5.2262 26.3083 5.83924 26.3083 6.59416C26.3083 7.34908 25.724 7.96212 25 7.96212ZM3.25 21.1737H46.8135V12.7055H3.25V21.1737ZM25 15.4838C25.724 15.4838 26.3083 16.0958 26.3083 16.8507C26.3083 17.6067 25.724 18.2186 25 18.2186C24.2771 18.2186 23.6917 17.6067 23.6917 16.8507C23.6906 16.0958 24.2771 15.4838 25 15.4838ZM3.25 28.4762V34.632C3.25 35.3838 3.34271 36 4.0625 36H9.29583C10.0156 36 10.3417 35.3838 10.3417 34.632V30.7039H39.7219V34.632C39.7219 35.3838 39.9844 36 40.7031 36H45.9375C46.6552 36 46.8125 35.3838 46.8125 34.632V23.2934H3.25V28.4762ZM25 25.7414C25.724 25.7414 26.3083 26.3544 26.3083 27.1083C26.3083 27.8653 25.724 28.4752 25 28.4752C24.2771 28.4752 23.6917 27.8653 23.6917 27.1083C23.6906 26.3555 24.2771 25.7414 25 25.7414Z" fill="white"/>
</svg>
