<svg width="50" height="50" viewBox="0 0 50 50" fill="none" xmlns="http://www.w3.org/2000/svg">
<path d="M48.5769 22.2222L42.3077 7.40741H46.1538V3.7037H26.9231V0H23.0769V3.7037H3.84615V7.40741H7.69231L1.46154 22.2222H0V25.9259H0.576923C1.17692 27.7704 2.39615 29.3704 4.03846 30.4815C5.66019 31.6139 7.61215 32.2237 9.61538 32.2237C11.6186 32.2237 13.5706 31.6139 15.1923 30.4815C16.836 29.3636 18.063 27.7665 18.6923 25.9259H19.2308V22.2222H17.5L11.0769 7.40741H23.0769V37.037H15.3846L13.8846 37.7037L6.19231 47L7.69231 50H42.3077L43.8077 47L36.1154 37.7037L34.6154 37.037H26.9231V7.40741H38.9615L32.5385 22.2222H30.7692V25.9259H31.3462C31.9752 27.7609 33.1892 29.3581 34.8154 30.4902C36.4416 31.6224 38.3972 32.2318 40.4038 32.2318C42.4105 32.2318 44.3661 31.6224 45.9923 30.4902C47.6185 29.3581 48.8325 27.7609 49.4615 25.9259H50V22.2222H48.5769ZM12.3846 27.8148C11.5364 28.2669 10.5848 28.5087 9.61538 28.5185C8.65747 28.5137 7.717 28.2713 6.88461 27.8148C6.03581 27.3668 5.32067 26.7164 4.80769 25.9259H14.4231C13.9144 26.7068 13.2144 27.3554 12.3846 27.8148ZM13.3462 22.2222H5.65385L9.5 13.3333L13.3462 22.2222ZM33.6923 40.7407L38.4615 46.2963H11.5385L16.3077 40.7407H33.6923ZM40.5385 13.4074L44.3846 22.2963H36.6923L40.5385 13.4074ZM43.1538 27.8889C42.3129 28.3582 41.3565 28.6012 40.3846 28.5926C39.4243 28.6057 38.479 28.3621 37.6538 27.8889C36.8038 27.4098 36.0902 26.7354 35.5769 25.9259H45.1923C44.7155 26.75 44.0096 27.4298 43.1538 27.8889Z" fill="white"/>
</svg>
