<svg width="15" height="12" viewBox="0 0 15 12" fill="none" xmlns="http://www.w3.org/2000/svg">
<path d="M14.4643 0H0.535714C0.239397 0 0 0.24375 0 0.545455V11.4545C0 11.7563 0.239397 12 0.535714 12H14.4643C14.7606 12 15 11.7563 15 11.4545V0.545455C15 0.24375 14.7606 0 14.4643 0ZM13.7946 1.88864V10.7727H1.20536V1.88864L0.743304 1.52216L1.40123 0.661364L2.11775 1.22898H12.8839L13.6004 0.661364L14.2584 1.52216L13.7946 1.88864ZM12.8839 1.22727L7.5 5.48864L2.11607 1.22727L1.39955 0.659659L0.741629 1.52045L1.20368 1.88693L6.92243 6.4142C7.0869 6.5443 7.28923 6.61492 7.49749 6.61492C7.70575 6.61492 7.90808 6.5443 8.07255 6.4142L13.7946 1.88864L14.2567 1.52216L13.5988 0.661364L12.8839 1.22727Z" fill="#969696"/>
</svg>
