<?xml version="1.0" encoding="iso-8859-1"?>
<!-- Generator: Adobe Illustrator 19.0.0, SVG Export Plug-In . SVG Version: 6.00 Build 0)  -->
<svg version="1.1" id="Layer_1" xmlns="http://www.w3.org/2000/svg" xmlns:xlink="http://www.w3.org/1999/xlink" x="0px" y="0px"
	 viewBox="0 0 512 512" style="enable-background:new 0 0 512 512;" xml:space="preserve">
<g>
	<g>
		<polygon points="211.404,211.046 211.404,424.149 227.066,424.149 242.727,424.149 266.836,424.149 282.497,424.149 
			298.159,424.149 298.159,211.046 		"/>
	</g>
</g>
<g>
	<g>
		<path d="M282.497,455.472h-15.662h-24.108h-15.662h-15.662v13.469c0,23.743,19.316,43.059,43.059,43.059h0.647
			c23.733,0,43.049-19.316,43.049-43.059v-13.469H282.497z"/>
	</g>
</g>
<g>
	<g>
		<path d="M295.361,61.028c-6.045-6.557-20.193-32.346-21.31-38.841L270.876,0l-19.734,10.608
			c-2.307,1.232-56.445,31.021-59.535,95.15c-3.237,67.042,42.861,83.393,44.824,84.061l2.443,0.825h24.171
			c32.19-0.01,50.138-29.632,55.724-54.993C324.491,109.621,316.4,83.821,295.361,61.028z"/>
	</g>
</g>
<g>
</g>
<g>
</g>
<g>
</g>
<g>
</g>
<g>
</g>
<g>
</g>
<g>
</g>
<g>
</g>
<g>
</g>
<g>
</g>
<g>
</g>
<g>
</g>
<g>
</g>
<g>
</g>
<g>
</g>
</svg>
