<svg width="20" height="12" viewBox="0 0 20 12" fill="none" xmlns="http://www.w3.org/2000/svg">
<path d="M19.7558 5.26581L15.7742 0.304076C15.5358 0.00717338 15.1775 -0.081629 14.8661 0.0790655C14.5548 0.23976 14.3517 0.618316 14.3517 1.03826V4.1827C14.3517 4.32608 14.2584 4.44232 14.1433 4.44232H1.25C0.559644 4.44232 0 5.13972 0 6C0 6.86028 0.559644 7.55768 1.25 7.55768H14.1433C14.2584 7.55768 14.3517 7.67391 14.3517 7.8173V10.9617C14.3517 11.3817 14.5548 11.7602 14.8661 11.9209C15.1775 12.0816 15.5358 11.9928 15.7742 11.6959L19.7558 6.73419C20.0811 6.32867 20.0811 5.67133 19.7558 5.26581Z" fill="#141B2D"/>
</svg>
