<svg width="19" height="14" viewBox="0 0 19 14" fill="none" xmlns="http://www.w3.org/2000/svg">
<path fill-rule="evenodd" clip-rule="evenodd" d="M0 0H19V14H0V0Z" fill="#E30A17"/>
<path fill-rule="evenodd" clip-rule="evenodd" d="M12.0829 7.21876C12.0829 9.1496 10.4619 10.7158 8.46099 10.7158C6.46005 10.7158 4.83911 9.1496 4.83911 7.21585C4.83911 5.2821 6.46005 3.72168 8.46099 3.72168C10.4619 3.72168 12.0829 5.28793 12.0829 7.21876Z" fill="white"/>
<path fill-rule="evenodd" clip-rule="evenodd" d="M12.2609 7.21871C12.2609 8.76455 10.9665 10.0158 9.36637 10.0158C7.76622 10.0158 6.46887 8.76163 6.46887 7.2158C6.46887 5.66996 7.76622 4.42163 9.36637 4.42163C10.9665 4.42163 12.2639 5.67288 12.2639 7.21871H12.2609Z" fill="#E30A17"/>
<path fill-rule="evenodd" clip-rule="evenodd" d="M12.7864 5.58544L12.7567 6.87752L11.5306 7.20419L12.7419 7.6271L12.7122 8.81419L13.4989 7.88669L14.6924 8.29502L14.0036 7.30044L14.8438 6.31169L13.5524 6.66169L12.7864 5.58252V5.58544Z" fill="white"/>
</svg>
