<svg width="21" height="16" viewBox="0 0 21 16" fill="none" xmlns="http://www.w3.org/2000/svg">
<path d="M0 0H21V16H0V0Z" fill="#012169"/>
<path d="M2.46094 0L10.4672 6.03333L18.4406 0H21V2.06667L13.125 8.03333L21 13.9667V16H18.375L10.5 10.0333L2.65781 16H0V14L7.84219 8.06667L0 2.13333V0H2.46094Z" fill="white"/>
<path d="M13.9125 9.36667L21 14.6667V16L12.1078 9.36667H13.9125ZM7.875 10.0333L8.07187 11.2L1.77187 16H0L7.875 10.0333ZM21 0V0.1L12.8297 6.36667L12.8953 4.9L19.3594 0H21ZM0 0L7.84219 5.86667H5.87344L0 1.4V0Z" fill="#C8102E"/>
<path d="M7.90781 0V16H13.1578V0H7.90781ZM0 5.33333V10.6667H21V5.33333H0Z" fill="white"/>
<path d="M0 6.43333V9.63333H21V6.43333H0ZM8.95781 0V16H12.1078V0H8.95781Z" fill="#C8102E"/>
</svg>
