<svg width="15" height="15" viewBox="0 0 15 15" fill="none" xmlns="http://www.w3.org/2000/svg">
<path d="M7.1311 0.0758056C7.36548 -0.0252685 7.63501 -0.0252685 7.86939 0.0758056L14.432 2.88839C14.8422 3.06446 15.0707 3.50392 14.9799 3.93751C14.892 4.37403 14.5082 4.66114 14.0365 4.68751V4.92189C14.0365 5.31153 13.7494 5.62501 13.3334 5.62501H1.6144C1.25228 5.62501 0.911262 5.31153 0.911262 4.92189V4.68751C0.492602 4.66114 0.108748 4.37403 0.0192441 3.93751C-0.0702595 3.50392 0.159168 3.06446 0.568189 2.88839L7.1311 0.0758056ZM7.50024 3.75001C8.01881 3.75001 8.43776 3.33107 8.43776 2.81251C8.43776 2.29484 8.01881 1.87501 7.50024 1.87501C6.98168 1.87501 6.56273 2.29484 6.56273 2.81251C6.56273 3.33107 6.98168 3.75001 7.50024 3.75001ZM3.72381 12.1875H4.89571V6.56251H6.77074V12.1875H8.20338V6.56251H10.0784V12.1875H11.2503V6.56251H13.1253V12.3135C13.1429 12.3223 13.1605 12.3076 13.1781 12.3457L14.5844 13.2832C14.9271 13.5117 15.0795 13.9395 14.9594 14.335C14.8392 14.7305 14.476 15 14.0629 15H0.911262C0.524536 15 0.160018 14.7305 0.0403089 14.335C-0.0794295 13.9395 0.0737958 13.5117 0.417601 13.2832L1.82388 12.3457C1.84057 12.3076 1.85786 12.3223 1.84878 12.3135V6.56251H3.72381V12.1875Z" fill="#969696"/>
</svg>
