<svg width="15" height="15" viewBox="0 0 15 15" fill="none" xmlns="http://www.w3.org/2000/svg">
<path d="M10.9264 15C11.1255 15.0011 11.3229 14.9626 11.5071 14.8866C11.6912 14.8107 11.8583 14.6988 11.9987 14.5575L14.031 12.5252C14.1707 12.3847 14.2491 12.1947 14.2491 11.9965C14.2491 11.7984 14.1707 11.6084 14.031 11.4679L11.0314 8.46817C10.8908 8.3285 10.7008 8.2501 10.5027 8.2501C10.3045 8.2501 10.1145 8.3285 9.97396 8.46817L8.77409 9.66054C7.94337 9.43905 7.174 9.03128 6.52433 8.46817C5.96273 7.81747 5.55516 7.04846 5.33196 6.21841L6.52433 5.01854C6.664 4.87803 6.7424 4.68796 6.7424 4.48984C6.7424 4.29173 6.664 4.10166 6.52433 3.96115L3.52465 0.961469C3.38414 0.821795 3.19407 0.743397 2.99596 0.743397C2.79784 0.743397 2.60777 0.821795 2.46726 0.961469L0.442478 3.00125C0.301217 3.14167 0.189339 3.30881 0.113373 3.49294C0.0374067 3.67706 -0.00112545 3.87446 2.50224e-05 4.07364C0.06806 6.95505 1.21945 9.705 3.22468 11.7753C5.295 13.7805 8.04495 14.9319 10.9264 15ZM2.99971 2.5588L4.942 4.50109L3.9746 5.46849C3.88298 5.55432 3.81436 5.66177 3.77506 5.781C3.73575 5.90024 3.72701 6.02743 3.74963 6.15092C4.02992 7.40356 4.62337 8.56464 5.47444 9.52556C6.43461 10.3777 7.59599 10.9713 8.84908 11.2504C8.9707 11.2758 9.09674 11.2706 9.21585 11.2353C9.33497 11.1999 9.44344 11.1355 9.53151 11.0479L10.4989 10.058L12.4412 12.0003L10.9414 13.5001C8.45442 13.4361 6.08151 12.4436 4.28957 10.7179C2.55944 8.92525 1.56407 6.54921 1.49987 4.05864L2.99971 2.5588ZM13.4986 6.75085H14.9984C15.0179 5.8592 14.8566 4.97284 14.5243 4.14518C14.192 3.31753 13.6956 2.56573 13.0649 1.93509C12.4343 1.30444 11.6825 0.808009 10.8548 0.47571C10.0272 0.143411 9.1408 -0.0178756 8.24915 0.00157081V1.50141C8.945 1.47734 9.63837 1.59666 10.2862 1.85195C10.9339 2.10724 11.5223 2.49305 12.0146 2.98538C12.507 3.47772 12.8928 4.06607 13.148 4.71385C13.4033 5.36163 13.5227 6.055 13.4986 6.75085Z" fill="#969696"/>
<path d="M8.24915 4.50106C9.82398 4.50106 10.4989 5.17599 10.4989 6.75082H11.9987C11.9987 4.33608 10.6639 3.00122 8.24915 3.00122V4.50106Z" fill="#969696"/>
</svg>
